<svg xmlns="http://www.w3.org/2000/svg" width="416" height="140" viewBox="0 0 416 140" fill="none">
  <path d="M 35.913 106.912 C 15.183 106.912 0 89.853 0 68.971 C 0 48.382 16.351 31.324 38.103 31.324 C 59.709 31.324 76.206 47.5 76.206 68.971 L 76.206 105.147 L 62.483 105.147 L 62.483 92.5 C 57.082 101.324 47.592 106.912 35.913 106.912 Z M 38.103 93.088 C 51.534 93.088 61.753 82.206 61.753 69.118 C 61.753 55.882 51.534 45 38.103 45 C 24.818 45 14.453 55.882 14.453 69.118 C 14.453 82.206 24.818 93.088 38.103 93.088 Z" fill="currentColor" fill-rule="nonzero"/>
  <path d="M 95.449 0 L 109.902 0 L 109.902 105.147 L 95.449 105.147 L 95.449 0 Z" fill="currentColor" fill-rule="nonzero"/>
  <path d="M 162.498 106.765 C 140.745 106.765 124.541 90.882 124.541 68.676 C 124.541 47.941 139.286 31.029 160.746 31.029 C 182.352 31.029 195.783 46.765 195.783 66.912 L 195.783 72.794 L 138.556 72.794 C 140.162 85.147 149.505 93.824 162.352 93.824 C 171.111 93.824 178.994 90 183.228 82.059 L 194.323 87.794 C 188.046 100.147 176.513 106.765 162.498 106.765 Z M 139.14 63.382 L 181.33 63.382 C 180.746 51.912 172.425 44.118 160.6 44.118 C 148.483 44.118 140.599 52.647 139.14 63.382 Z" fill="currentColor" fill-rule="nonzero"/>
  <path d="M 240.922 140 C 225.447 140 212.6 133.235 206.031 120.441 L 218.148 113.824 C 222.382 121.618 230.265 126.618 240.63 126.618 C 255.667 126.618 265.886 115.735 265.886 98.824 L 265.886 93.088 C 261.215 100.588 252.455 106.176 240.484 106.176 C 220.192 106.176 204.133 90 204.133 68.824 C 204.133 48.235 220.484 31.324 242.236 31.324 C 263.842 31.324 280.339 47.5 280.339 68.971 L 280.339 98.676 C 280.339 123.676 263.696 140 240.922 140 Z M 242.09 92.5 C 255.229 92.5 265.74 81.912 265.74 68.676 C 265.74 55.441 255.229 45.147 242.09 45.147 C 229.097 45.147 218.44 55.441 218.44 68.676 C 218.44 81.912 229.097 92.5 242.09 92.5 Z" fill="currentColor" fill-rule="nonzero"/>
  <path d="M 311.115 105.147 L 296.662 105.147 L 296.662 62.206 C 296.662 44.706 306.59 31.618 325.276 31.618 C 329.802 31.618 334.473 32.5 338.123 34.265 L 338.123 48.676 C 334.619 46.618 330.532 45.588 326.59 45.588 C 316.955 45.588 311.115 52.206 311.115 62.794 L 311.115 105.147 Z" fill="currentColor" fill-rule="nonzero"/>
  <path d="M 375.707 106.912 C 354.977 106.912 339.794 89.853 339.794 68.971 C 339.794 48.382 356.145 31.324 377.897 31.324 C 399.503 31.324 416 47.5 416 68.971 L 416 105.147 L 402.277 105.147 L 402.277 92.5 C 396.876 101.324 387.386 106.912 375.707 106.912 Z M 377.897 93.088 C 391.328 93.088 401.547 82.206 401.547 69.118 C 401.547 55.882 391.328 45 377.897 45 C 364.612 45 354.247 55.882 354.247 69.118 C 354.247 82.206 364.612 93.088 377.897 93.088 Z" fill="currentColor" fill-rule="nonzero"/>
</svg>
