<svg xmlns="http://www.w3.org/2000/svg" width="208" height="138" viewBox="0 0 208 138" fill="none">
  <path d="M 164.249 131.177 C 158.836 133.949 111.823 143.44 76.105 133.722 C 49.422 126.441 13.832 105.653 2 98.478 C -0.164 97.166 -0.647 94.271 0.92 92.279 L 44.813 36.461 C 46.674 34.094 50.348 34.321 51.95 36.871 C 59.059 48.185 77.052 75.01 98.486 93.261 C 127.237 117.758 150.467 124.634 164.409 126.226 C 166.132 126.423 169.661 128.405 164.249 131.177 Z" fill="currentColor" fill-rule="nonzero"/>
  <path d="M 151.577 111.734 C 147.126 110.752 115.387 93.773 99.31 71.067 C 87.736 54.696 77.329 27.086 73.51 16.34 C 72.661 13.95 74.117 11.402 76.588 10.862 L 125.827 0.101 C 128.763 -0.541 131.461 1.98 131.106 4.975 C 129.832 15.719 127.915 38.527 131.483 58.329 C 136.508 86.266 146.7 101.355 154.02 108.943 C 154.925 109.881 156.028 112.716 151.577 111.734 Z" fill="currentColor" fill-rule="nonzero"/>
  <path d="M 156.604 98.816 C 154.568 96.41 144.203 73.775 144.826 54.561 C 145.258 41.512 150.416 23.415 152.997 15.093 C 153.749 12.671 156.449 11.512 158.741 12.583 L 187.181 25.875 C 189.904 27.148 190.531 30.805 188.469 32.998 C 182.974 38.839 173.584 49.672 167.802 61.055 C 158.93 78.507 158.246 91.07 159.108 98.307 C 159.215 99.202 158.64 101.222 156.604 98.816 Z" fill="currentColor" fill-rule="nonzero"/>
  <path d="M 168.392 91.711 C 168.307 89.885 171.537 75.826 178.597 67.238 C 183.154 61.704 191.269 55.595 195.602 52.511 C 197.149 51.41 199.279 51.964 200.15 53.654 L 207.639 68.173 C 208.675 70.182 207.371 72.646 205.149 73.024 C 200.449 73.824 193.018 75.441 186.842 78.374 C 176.62 83.226 171.877 88.743 169.72 92.367 C 169.453 92.815 168.478 93.537 168.392 91.711 Z" fill="currentColor" fill-rule="nonzero"/>
</svg>
